<mxfile host="app.diagrams.net" modified="2023-03-28T04:06:29.287Z" agent="Mozilla/5.0 (Windows NT 10.0; Win64; x64) AppleWebKit/537.36 (KHTML, like Gecko) Chrome/98.0.4758.102 Safari/537.36" etag="6IPvC5eXMROdK5lMnzS6" version="21.1.1" type="github">
  <diagram name="Page-1" id="8ce9d11a-91a2-4d17-14d8-a56ed91bf033">
    <mxGraphModel dx="875" dy="457" grid="1" gridSize="10" guides="1" tooltips="1" connect="1" arrows="1" fold="1" page="1" pageScale="1" pageWidth="1100" pageHeight="850" background="none" math="0" shadow="0">
      <root>
        <mxCell id="0" />
        <mxCell id="1" parent="0" />
        <mxCell id="FNZ7fBpOuX21M7Q4hbkI-1" value="Image&lt;sup&gt;q&lt;/sup&gt;" style="swimlane;fontStyle=0;childLayout=stackLayout;horizontal=1;startSize=20;horizontalStack=0;resizeParent=1;resizeParentMax=0;resizeLast=0;collapsible=1;marginBottom=0;whiteSpace=wrap;html=1;" vertex="1" parent="1">
          <mxGeometry x="271" y="120" width="140" height="110" as="geometry">
            <mxRectangle x="270" y="120" width="80" height="30" as="alternateBounds" />
          </mxGeometry>
        </mxCell>
        <mxCell id="FNZ7fBpOuX21M7Q4hbkI-48" style="edgeStyle=orthogonalEdgeStyle;rounded=0;orthogonalLoop=1;jettySize=auto;html=1;exitX=1;exitY=0.5;exitDx=0;exitDy=0;" edge="1" parent="FNZ7fBpOuX21M7Q4hbkI-1" source="FNZ7fBpOuX21M7Q4hbkI-2">
          <mxGeometry relative="1" as="geometry">
            <mxPoint x="219" y="34.66666666666674" as="targetPoint" />
          </mxGeometry>
        </mxCell>
        <mxCell id="FNZ7fBpOuX21M7Q4hbkI-2" value="Img&lt;sup&gt;q&lt;/sup&gt; k-3" style="text;strokeColor=none;fillColor=none;align=left;verticalAlign=middle;spacingLeft=4;spacingRight=4;overflow=hidden;points=[[0,0.5],[1,0.5]];portConstraint=eastwest;rotatable=0;whiteSpace=wrap;html=1;" vertex="1" parent="FNZ7fBpOuX21M7Q4hbkI-1">
          <mxGeometry y="20" width="140" height="30" as="geometry" />
        </mxCell>
        <mxCell id="FNZ7fBpOuX21M7Q4hbkI-47" style="edgeStyle=orthogonalEdgeStyle;rounded=0;orthogonalLoop=1;jettySize=auto;html=1;exitX=1;exitY=0.5;exitDx=0;exitDy=0;" edge="1" parent="FNZ7fBpOuX21M7Q4hbkI-1" source="FNZ7fBpOuX21M7Q4hbkI-3">
          <mxGeometry relative="1" as="geometry">
            <mxPoint x="219" y="64.66666666666674" as="targetPoint" />
          </mxGeometry>
        </mxCell>
        <mxCell id="FNZ7fBpOuX21M7Q4hbkI-3" value="Img&lt;sup&gt;q&lt;/sup&gt; k-2" style="text;strokeColor=none;fillColor=none;align=left;verticalAlign=middle;spacingLeft=4;spacingRight=4;overflow=hidden;points=[[0,0.5],[1,0.5]];portConstraint=eastwest;rotatable=0;whiteSpace=wrap;html=1;" vertex="1" parent="FNZ7fBpOuX21M7Q4hbkI-1">
          <mxGeometry y="50" width="140" height="30" as="geometry" />
        </mxCell>
        <mxCell id="FNZ7fBpOuX21M7Q4hbkI-46" style="edgeStyle=orthogonalEdgeStyle;rounded=0;orthogonalLoop=1;jettySize=auto;html=1;exitX=1;exitY=0.5;exitDx=0;exitDy=0;" edge="1" parent="FNZ7fBpOuX21M7Q4hbkI-1" source="FNZ7fBpOuX21M7Q4hbkI-4">
          <mxGeometry relative="1" as="geometry">
            <mxPoint x="219" y="94.66666666666674" as="targetPoint" />
          </mxGeometry>
        </mxCell>
        <mxCell id="FNZ7fBpOuX21M7Q4hbkI-4" value="Img&lt;sup&gt;q&lt;/sup&gt; k-1" style="text;strokeColor=none;fillColor=none;align=left;verticalAlign=middle;spacingLeft=4;spacingRight=4;overflow=hidden;points=[[0,0.5],[1,0.5]];portConstraint=eastwest;rotatable=0;whiteSpace=wrap;html=1;" vertex="1" parent="FNZ7fBpOuX21M7Q4hbkI-1">
          <mxGeometry y="80" width="140" height="30" as="geometry" />
        </mxCell>
        <mxCell id="FNZ7fBpOuX21M7Q4hbkI-6" value="Image" style="swimlane;fontStyle=0;childLayout=stackLayout;horizontal=1;startSize=20;horizontalStack=0;resizeParent=1;resizeParentMax=0;resizeLast=0;collapsible=1;marginBottom=0;whiteSpace=wrap;html=1;" vertex="1" parent="1">
          <mxGeometry x="29" y="120" width="140" height="110" as="geometry">
            <mxRectangle x="270" y="120" width="80" height="30" as="alternateBounds" />
          </mxGeometry>
        </mxCell>
        <mxCell id="FNZ7fBpOuX21M7Q4hbkI-7" value="Img k-3" style="text;strokeColor=none;fillColor=none;align=left;verticalAlign=middle;spacingLeft=4;spacingRight=4;overflow=hidden;points=[[0,0.5],[1,0.5]];portConstraint=eastwest;rotatable=0;whiteSpace=wrap;html=1;" vertex="1" parent="FNZ7fBpOuX21M7Q4hbkI-6">
          <mxGeometry y="20" width="140" height="30" as="geometry" />
        </mxCell>
        <mxCell id="FNZ7fBpOuX21M7Q4hbkI-8" value="Img k-2" style="text;strokeColor=none;fillColor=none;align=left;verticalAlign=middle;spacingLeft=4;spacingRight=4;overflow=hidden;points=[[0,0.5],[1,0.5]];portConstraint=eastwest;rotatable=0;whiteSpace=wrap;html=1;" vertex="1" parent="FNZ7fBpOuX21M7Q4hbkI-6">
          <mxGeometry y="50" width="140" height="30" as="geometry" />
        </mxCell>
        <mxCell id="FNZ7fBpOuX21M7Q4hbkI-9" value="Img k-1" style="text;strokeColor=none;fillColor=none;align=left;verticalAlign=middle;spacingLeft=4;spacingRight=4;overflow=hidden;points=[[0,0.5],[1,0.5]];portConstraint=eastwest;rotatable=0;whiteSpace=wrap;html=1;" vertex="1" parent="FNZ7fBpOuX21M7Q4hbkI-6">
          <mxGeometry y="80" width="140" height="30" as="geometry" />
        </mxCell>
        <mxCell id="FNZ7fBpOuX21M7Q4hbkI-78" style="edgeStyle=orthogonalEdgeStyle;rounded=0;orthogonalLoop=1;jettySize=auto;html=1;exitX=0.5;exitY=0;exitDx=0;exitDy=0;entryX=0.5;entryY=0;entryDx=0;entryDy=0;" edge="1" parent="1" source="FNZ7fBpOuX21M7Q4hbkI-10" target="FNZ7fBpOuX21M7Q4hbkI-75">
          <mxGeometry relative="1" as="geometry">
            <Array as="points">
              <mxPoint x="220" y="80" />
              <mxPoint x="800" y="80" />
            </Array>
          </mxGeometry>
        </mxCell>
        <mxCell id="FNZ7fBpOuX21M7Q4hbkI-10" value="分&lt;br&gt;区&lt;br&gt;量&lt;br&gt;化" style="rounded=0;whiteSpace=wrap;html=1;" vertex="1" parent="1">
          <mxGeometry x="200" y="120" width="40" height="160" as="geometry" />
        </mxCell>
        <mxCell id="FNZ7fBpOuX21M7Q4hbkI-11" value="" style="endArrow=classic;html=1;rounded=0;exitX=1;exitY=0.5;exitDx=0;exitDy=0;" edge="1" parent="1" source="FNZ7fBpOuX21M7Q4hbkI-7">
          <mxGeometry width="50" height="50" relative="1" as="geometry">
            <mxPoint x="440" y="230" as="sourcePoint" />
            <mxPoint x="200" y="155" as="targetPoint" />
          </mxGeometry>
        </mxCell>
        <mxCell id="FNZ7fBpOuX21M7Q4hbkI-12" value="" style="endArrow=classic;html=1;rounded=0;exitX=1;exitY=0.5;exitDx=0;exitDy=0;" edge="1" parent="1">
          <mxGeometry width="50" height="50" relative="1" as="geometry">
            <mxPoint x="170" y="185" as="sourcePoint" />
            <mxPoint x="201" y="185" as="targetPoint" />
          </mxGeometry>
        </mxCell>
        <mxCell id="FNZ7fBpOuX21M7Q4hbkI-13" value="" style="endArrow=classic;html=1;rounded=0;exitX=1;exitY=0.5;exitDx=0;exitDy=0;" edge="1" parent="1">
          <mxGeometry width="50" height="50" relative="1" as="geometry">
            <mxPoint x="170" y="214" as="sourcePoint" />
            <mxPoint x="201" y="214" as="targetPoint" />
          </mxGeometry>
        </mxCell>
        <mxCell id="FNZ7fBpOuX21M7Q4hbkI-14" value="" style="endArrow=classic;html=1;rounded=0;exitX=1;exitY=0.5;exitDx=0;exitDy=0;" edge="1" parent="1">
          <mxGeometry width="50" height="50" relative="1" as="geometry">
            <mxPoint x="240" y="155" as="sourcePoint" />
            <mxPoint x="271" y="155" as="targetPoint" />
          </mxGeometry>
        </mxCell>
        <mxCell id="FNZ7fBpOuX21M7Q4hbkI-15" value="" style="endArrow=classic;html=1;rounded=0;exitX=1;exitY=0.5;exitDx=0;exitDy=0;" edge="1" parent="1">
          <mxGeometry width="50" height="50" relative="1" as="geometry">
            <mxPoint x="241" y="185" as="sourcePoint" />
            <mxPoint x="272" y="185" as="targetPoint" />
          </mxGeometry>
        </mxCell>
        <mxCell id="FNZ7fBpOuX21M7Q4hbkI-16" value="" style="endArrow=classic;html=1;rounded=0;exitX=1;exitY=0.5;exitDx=0;exitDy=0;" edge="1" parent="1">
          <mxGeometry width="50" height="50" relative="1" as="geometry">
            <mxPoint x="241" y="214" as="sourcePoint" />
            <mxPoint x="272" y="214" as="targetPoint" />
          </mxGeometry>
        </mxCell>
        <mxCell id="FNZ7fBpOuX21M7Q4hbkI-62" style="edgeStyle=orthogonalEdgeStyle;rounded=0;orthogonalLoop=1;jettySize=auto;html=1;entryX=1;entryY=0.25;entryDx=0;entryDy=0;exitX=0.519;exitY=0.978;exitDx=0;exitDy=0;exitPerimeter=0;" edge="1" parent="1" source="FNZ7fBpOuX21M7Q4hbkI-19" target="FNZ7fBpOuX21M7Q4hbkI-59">
          <mxGeometry relative="1" as="geometry">
            <Array as="points">
              <mxPoint x="344" y="300" />
              <mxPoint x="250" y="300" />
              <mxPoint x="250" y="346" />
            </Array>
          </mxGeometry>
        </mxCell>
        <mxCell id="FNZ7fBpOuX21M7Q4hbkI-18" value="Image&lt;sup&gt;q&lt;/sup&gt;" style="swimlane;fontStyle=0;childLayout=stackLayout;horizontal=1;startSize=20;horizontalStack=0;resizeParent=1;resizeParentMax=0;resizeLast=0;collapsible=1;marginBottom=0;whiteSpace=wrap;html=1;" vertex="1" parent="1">
          <mxGeometry x="271" y="230" width="140" height="50" as="geometry">
            <mxRectangle x="270" y="120" width="80" height="30" as="alternateBounds" />
          </mxGeometry>
        </mxCell>
        <mxCell id="FNZ7fBpOuX21M7Q4hbkI-22" value="Image" style="swimlane;fontStyle=0;childLayout=stackLayout;horizontal=1;startSize=20;horizontalStack=0;resizeParent=1;resizeParentMax=0;resizeLast=0;collapsible=1;marginBottom=0;whiteSpace=wrap;html=1;" vertex="1" parent="1">
          <mxGeometry x="29" y="230" width="140" height="50" as="geometry">
            <mxRectangle x="270" y="120" width="80" height="30" as="alternateBounds" />
          </mxGeometry>
        </mxCell>
        <mxCell id="FNZ7fBpOuX21M7Q4hbkI-23" value="Img k" style="text;strokeColor=none;fillColor=none;align=left;verticalAlign=middle;spacingLeft=4;spacingRight=4;overflow=hidden;points=[[0,0.5],[1,0.5]];portConstraint=eastwest;rotatable=0;whiteSpace=wrap;html=1;" vertex="1" parent="FNZ7fBpOuX21M7Q4hbkI-22">
          <mxGeometry y="20" width="140" height="30" as="geometry" />
        </mxCell>
        <mxCell id="FNZ7fBpOuX21M7Q4hbkI-27" value="" style="endArrow=classic;html=1;rounded=0;exitX=1;exitY=0.5;exitDx=0;exitDy=0;" edge="1" parent="1" source="FNZ7fBpOuX21M7Q4hbkI-23">
          <mxGeometry width="50" height="50" relative="1" as="geometry">
            <mxPoint x="440" y="340" as="sourcePoint" />
            <mxPoint x="200" y="265" as="targetPoint" />
          </mxGeometry>
        </mxCell>
        <mxCell id="FNZ7fBpOuX21M7Q4hbkI-30" value="" style="endArrow=classic;html=1;rounded=0;exitX=1;exitY=0.5;exitDx=0;exitDy=0;" edge="1" parent="1">
          <mxGeometry width="50" height="50" relative="1" as="geometry">
            <mxPoint x="240" y="265" as="sourcePoint" />
            <mxPoint x="271" y="265" as="targetPoint" />
          </mxGeometry>
        </mxCell>
        <mxCell id="FNZ7fBpOuX21M7Q4hbkI-33" value="GPU" style="swimlane;whiteSpace=wrap;html=1;rounded=1;startSize=23;" vertex="1" parent="1">
          <mxGeometry x="470" y="96" width="210" height="264" as="geometry" />
        </mxCell>
        <mxCell id="FNZ7fBpOuX21M7Q4hbkI-42" style="edgeStyle=orthogonalEdgeStyle;rounded=0;orthogonalLoop=1;jettySize=auto;html=1;exitX=1;exitY=0.5;exitDx=0;exitDy=0;entryX=0;entryY=0.5;entryDx=0;entryDy=0;" edge="1" parent="FNZ7fBpOuX21M7Q4hbkI-33" source="FNZ7fBpOuX21M7Q4hbkI-35" target="FNZ7fBpOuX21M7Q4hbkI-41">
          <mxGeometry relative="1" as="geometry" />
        </mxCell>
        <mxCell id="FNZ7fBpOuX21M7Q4hbkI-35" value="输&lt;br&gt;入&lt;br&gt;数&lt;br&gt;据" style="rounded=0;whiteSpace=wrap;html=1;" vertex="1" parent="FNZ7fBpOuX21M7Q4hbkI-33">
          <mxGeometry x="21" y="29" width="39" height="121" as="geometry" />
        </mxCell>
        <mxCell id="FNZ7fBpOuX21M7Q4hbkI-40" style="edgeStyle=orthogonalEdgeStyle;rounded=0;orthogonalLoop=1;jettySize=auto;html=1;exitX=0.5;exitY=1;exitDx=0;exitDy=0;" edge="1" parent="FNZ7fBpOuX21M7Q4hbkI-33" source="FNZ7fBpOuX21M7Q4hbkI-35" target="FNZ7fBpOuX21M7Q4hbkI-35">
          <mxGeometry relative="1" as="geometry" />
        </mxCell>
        <mxCell id="FNZ7fBpOuX21M7Q4hbkI-51" style="edgeStyle=orthogonalEdgeStyle;rounded=0;orthogonalLoop=1;jettySize=auto;html=1;exitX=0.5;exitY=1;exitDx=0;exitDy=0;entryX=0.5;entryY=0;entryDx=0;entryDy=0;" edge="1" parent="FNZ7fBpOuX21M7Q4hbkI-33" source="FNZ7fBpOuX21M7Q4hbkI-41" target="FNZ7fBpOuX21M7Q4hbkI-49">
          <mxGeometry relative="1" as="geometry" />
        </mxCell>
        <mxCell id="FNZ7fBpOuX21M7Q4hbkI-41" value="model" style="shape=hexagon;perimeter=hexagonPerimeter2;whiteSpace=wrap;html=1;fixedSize=1;" vertex="1" parent="FNZ7fBpOuX21M7Q4hbkI-33">
          <mxGeometry x="90" y="66.5" width="80" height="46" as="geometry" />
        </mxCell>
        <mxCell id="FNZ7fBpOuX21M7Q4hbkI-53" value="" style="edgeStyle=orthogonalEdgeStyle;rounded=0;orthogonalLoop=1;jettySize=auto;html=1;" edge="1" parent="FNZ7fBpOuX21M7Q4hbkI-33" source="FNZ7fBpOuX21M7Q4hbkI-49" target="FNZ7fBpOuX21M7Q4hbkI-52">
          <mxGeometry relative="1" as="geometry" />
        </mxCell>
        <mxCell id="FNZ7fBpOuX21M7Q4hbkI-49" value="Image *&lt;span style=&quot;font-size: 10px;&quot;&gt; &lt;/span&gt;Prob" style="swimlane;fontStyle=0;childLayout=stackLayout;horizontal=1;startSize=20;horizontalStack=0;resizeParent=1;resizeParentMax=0;resizeLast=0;collapsible=1;marginBottom=0;whiteSpace=wrap;html=1;" vertex="1" parent="FNZ7fBpOuX21M7Q4hbkI-33">
          <mxGeometry x="70" y="134" width="120" height="50" as="geometry">
            <mxRectangle x="270" y="120" width="80" height="30" as="alternateBounds" />
          </mxGeometry>
        </mxCell>
        <mxCell id="FNZ7fBpOuX21M7Q4hbkI-50" value="Img&lt;span style=&quot;font-size: 10px;&quot;&gt;&amp;nbsp;* Prob k&lt;sup&gt;P&lt;/sup&gt;&lt;/span&gt;" style="text;strokeColor=none;fillColor=none;align=left;verticalAlign=middle;spacingLeft=4;spacingRight=4;overflow=hidden;points=[[0,0.5],[1,0.5]];portConstraint=eastwest;rotatable=0;whiteSpace=wrap;html=1;" vertex="1" parent="FNZ7fBpOuX21M7Q4hbkI-49">
          <mxGeometry y="20" width="120" height="30" as="geometry" />
        </mxCell>
        <mxCell id="FNZ7fBpOuX21M7Q4hbkI-55" style="edgeStyle=orthogonalEdgeStyle;rounded=0;orthogonalLoop=1;jettySize=auto;html=1;exitX=0.5;exitY=1;exitDx=0;exitDy=0;" edge="1" parent="FNZ7fBpOuX21M7Q4hbkI-33" source="FNZ7fBpOuX21M7Q4hbkI-52">
          <mxGeometry relative="1" as="geometry">
            <mxPoint x="130" y="240.33333333333337" as="targetPoint" />
          </mxGeometry>
        </mxCell>
        <mxCell id="FNZ7fBpOuX21M7Q4hbkI-52" value="arg.max" style="rounded=0;whiteSpace=wrap;html=1;" vertex="1" parent="FNZ7fBpOuX21M7Q4hbkI-33">
          <mxGeometry x="70" y="204" width="120" height="36" as="geometry" />
        </mxCell>
        <mxCell id="FNZ7fBpOuX21M7Q4hbkI-54" value="CPU" style="swimlane;whiteSpace=wrap;html=1;rounded=1;" vertex="1" parent="1">
          <mxGeometry x="50" y="293" width="160" height="117" as="geometry" />
        </mxCell>
        <mxCell id="FNZ7fBpOuX21M7Q4hbkI-59" value="残差计算" style="rounded=0;whiteSpace=wrap;html=1;" vertex="1" parent="FNZ7fBpOuX21M7Q4hbkI-54">
          <mxGeometry x="21" y="40" width="119" height="50" as="geometry" />
        </mxCell>
        <mxCell id="FNZ7fBpOuX21M7Q4hbkI-56" value="Image&lt;sup&gt;q&lt;/sup&gt;&#39;" style="swimlane;fontStyle=0;childLayout=stackLayout;horizontal=1;startSize=20;horizontalStack=0;resizeParent=1;resizeParentMax=0;resizeLast=0;collapsible=1;marginBottom=0;whiteSpace=wrap;html=1;" vertex="1" parent="1">
          <mxGeometry x="271" y="333" width="140" height="50" as="geometry">
            <mxRectangle x="270" y="120" width="80" height="30" as="alternateBounds" />
          </mxGeometry>
        </mxCell>
        <mxCell id="FNZ7fBpOuX21M7Q4hbkI-57" value="Img&lt;sup&gt;q&lt;/sup&gt; k&#39;" style="text;strokeColor=none;fillColor=none;align=left;verticalAlign=middle;spacingLeft=4;spacingRight=4;overflow=hidden;points=[[0,0.5],[1,0.5]];portConstraint=eastwest;rotatable=0;whiteSpace=wrap;html=1;" vertex="1" parent="FNZ7fBpOuX21M7Q4hbkI-56">
          <mxGeometry y="20" width="140" height="30" as="geometry" />
        </mxCell>
        <mxCell id="FNZ7fBpOuX21M7Q4hbkI-58" style="edgeStyle=orthogonalEdgeStyle;rounded=0;orthogonalLoop=1;jettySize=auto;html=1;exitX=0.5;exitY=1;exitDx=0;exitDy=0;entryX=1;entryY=0.5;entryDx=0;entryDy=0;" edge="1" parent="1" source="FNZ7fBpOuX21M7Q4hbkI-52" target="FNZ7fBpOuX21M7Q4hbkI-57">
          <mxGeometry relative="1" as="geometry" />
        </mxCell>
        <mxCell id="FNZ7fBpOuX21M7Q4hbkI-60" style="edgeStyle=orthogonalEdgeStyle;rounded=0;orthogonalLoop=1;jettySize=auto;html=1;exitX=0;exitY=0.5;exitDx=0;exitDy=0;" edge="1" parent="1" source="FNZ7fBpOuX21M7Q4hbkI-57">
          <mxGeometry relative="1" as="geometry">
            <mxPoint x="190" y="368" as="targetPoint" />
          </mxGeometry>
        </mxCell>
        <mxCell id="FNZ7fBpOuX21M7Q4hbkI-19" value="Img&lt;sup&gt;q&lt;/sup&gt; k" style="text;strokeColor=none;fillColor=none;align=left;verticalAlign=middle;spacingLeft=4;spacingRight=4;overflow=hidden;points=[[0,0.5],[1,0.5]];portConstraint=eastwest;rotatable=0;whiteSpace=wrap;html=1;" vertex="1" parent="1">
          <mxGeometry x="271" y="250" width="140" height="30" as="geometry" />
        </mxCell>
        <mxCell id="FNZ7fBpOuX21M7Q4hbkI-63" value="Image&lt;sup&gt;R&lt;/sup&gt;" style="swimlane;fontStyle=0;childLayout=stackLayout;horizontal=1;startSize=20;horizontalStack=0;resizeParent=1;resizeParentMax=0;resizeLast=0;collapsible=1;marginBottom=0;whiteSpace=wrap;html=1;" vertex="1" parent="1">
          <mxGeometry x="60" y="431" width="140" height="50" as="geometry">
            <mxRectangle x="270" y="120" width="80" height="30" as="alternateBounds" />
          </mxGeometry>
        </mxCell>
        <mxCell id="FNZ7fBpOuX21M7Q4hbkI-64" value="Img&lt;span style=&quot;font-size: 10px;&quot;&gt;&lt;sup&gt;R&lt;/sup&gt;&lt;/span&gt;&amp;nbsp;k" style="text;strokeColor=none;fillColor=none;align=left;verticalAlign=middle;spacingLeft=4;spacingRight=4;overflow=hidden;points=[[0,0.5],[1,0.5]];portConstraint=eastwest;rotatable=0;whiteSpace=wrap;html=1;" vertex="1" parent="FNZ7fBpOuX21M7Q4hbkI-63">
          <mxGeometry y="20" width="140" height="30" as="geometry" />
        </mxCell>
        <mxCell id="FNZ7fBpOuX21M7Q4hbkI-65" style="edgeStyle=orthogonalEdgeStyle;rounded=0;orthogonalLoop=1;jettySize=auto;html=1;exitX=0.5;exitY=1;exitDx=0;exitDy=0;" edge="1" parent="1" source="FNZ7fBpOuX21M7Q4hbkI-59" target="FNZ7fBpOuX21M7Q4hbkI-63">
          <mxGeometry relative="1" as="geometry" />
        </mxCell>
        <mxCell id="FNZ7fBpOuX21M7Q4hbkI-66" value="FPGA" style="swimlane;whiteSpace=wrap;html=1;rounded=1;" vertex="1" parent="1">
          <mxGeometry x="260" y="399.5" width="160" height="117" as="geometry" />
        </mxCell>
        <mxCell id="FNZ7fBpOuX21M7Q4hbkI-67" value="Huffman编码" style="rounded=0;whiteSpace=wrap;html=1;" vertex="1" parent="FNZ7fBpOuX21M7Q4hbkI-66">
          <mxGeometry x="21" y="40" width="119" height="50" as="geometry" />
        </mxCell>
        <mxCell id="FNZ7fBpOuX21M7Q4hbkI-68" value="" style="edgeStyle=orthogonalEdgeStyle;rounded=0;orthogonalLoop=1;jettySize=auto;html=1;" edge="1" parent="1" source="FNZ7fBpOuX21M7Q4hbkI-64">
          <mxGeometry relative="1" as="geometry">
            <mxPoint x="280" y="466" as="targetPoint" />
          </mxGeometry>
        </mxCell>
        <mxCell id="FNZ7fBpOuX21M7Q4hbkI-69" value="Image&lt;span style=&quot;font-size: 10px;&quot;&gt;&lt;sup&gt;S&lt;/sup&gt;&lt;/span&gt;" style="swimlane;fontStyle=0;childLayout=stackLayout;horizontal=1;startSize=20;horizontalStack=0;resizeParent=1;resizeParentMax=0;resizeLast=0;collapsible=1;marginBottom=0;whiteSpace=wrap;html=1;" vertex="1" parent="1">
          <mxGeometry x="495" y="430" width="140" height="50" as="geometry">
            <mxRectangle x="270" y="120" width="80" height="30" as="alternateBounds" />
          </mxGeometry>
        </mxCell>
        <mxCell id="FNZ7fBpOuX21M7Q4hbkI-70" value="Img&lt;span style=&quot;font-size: 8.33333px;&quot;&gt;&lt;sup&gt;S&lt;/sup&gt;&lt;/span&gt;&amp;nbsp;k" style="text;strokeColor=none;fillColor=none;align=left;verticalAlign=middle;spacingLeft=4;spacingRight=4;overflow=hidden;points=[[0,0.5],[1,0.5]];portConstraint=eastwest;rotatable=0;whiteSpace=wrap;html=1;" vertex="1" parent="FNZ7fBpOuX21M7Q4hbkI-69">
          <mxGeometry y="20" width="140" height="30" as="geometry" />
        </mxCell>
        <mxCell id="FNZ7fBpOuX21M7Q4hbkI-71" value="" style="edgeStyle=orthogonalEdgeStyle;rounded=0;orthogonalLoop=1;jettySize=auto;html=1;" edge="1" parent="1" source="FNZ7fBpOuX21M7Q4hbkI-67" target="FNZ7fBpOuX21M7Q4hbkI-70">
          <mxGeometry relative="1" as="geometry" />
        </mxCell>
        <mxCell id="FNZ7fBpOuX21M7Q4hbkI-73" value="编码表" style="swimlane;fontStyle=0;childLayout=stackLayout;horizontal=1;startSize=20;horizontalStack=0;resizeParent=1;resizeParentMax=0;resizeLast=0;collapsible=1;marginBottom=0;whiteSpace=wrap;html=1;" vertex="1" parent="1">
          <mxGeometry x="495" y="510" width="140" height="50" as="geometry">
            <mxRectangle x="270" y="120" width="80" height="30" as="alternateBounds" />
          </mxGeometry>
        </mxCell>
        <mxCell id="FNZ7fBpOuX21M7Q4hbkI-74" value="Huffman Code Table" style="text;strokeColor=none;fillColor=none;align=left;verticalAlign=middle;spacingLeft=4;spacingRight=4;overflow=hidden;points=[[0,0.5],[1,0.5]];portConstraint=eastwest;rotatable=0;whiteSpace=wrap;html=1;" vertex="1" parent="FNZ7fBpOuX21M7Q4hbkI-73">
          <mxGeometry y="20" width="140" height="30" as="geometry" />
        </mxCell>
        <mxCell id="FNZ7fBpOuX21M7Q4hbkI-72" style="edgeStyle=orthogonalEdgeStyle;rounded=0;orthogonalLoop=1;jettySize=auto;html=1;exitX=0.5;exitY=1;exitDx=0;exitDy=0;entryX=0;entryY=0.5;entryDx=0;entryDy=0;" edge="1" parent="1" source="FNZ7fBpOuX21M7Q4hbkI-67" target="FNZ7fBpOuX21M7Q4hbkI-74">
          <mxGeometry relative="1" as="geometry">
            <mxPoint x="460" y="594.6666463216146" as="targetPoint" />
          </mxGeometry>
        </mxCell>
        <mxCell id="FNZ7fBpOuX21M7Q4hbkI-75" value="Storage" style="shape=datastore;whiteSpace=wrap;html=1;" vertex="1" parent="1">
          <mxGeometry x="770" y="300" width="60" height="60" as="geometry" />
        </mxCell>
        <mxCell id="FNZ7fBpOuX21M7Q4hbkI-76" style="edgeStyle=orthogonalEdgeStyle;rounded=0;orthogonalLoop=1;jettySize=auto;html=1;exitX=1;exitY=0.5;exitDx=0;exitDy=0;entryX=0.15;entryY=0.95;entryDx=0;entryDy=0;entryPerimeter=0;" edge="1" parent="1" source="FNZ7fBpOuX21M7Q4hbkI-70" target="FNZ7fBpOuX21M7Q4hbkI-75">
          <mxGeometry relative="1" as="geometry" />
        </mxCell>
        <mxCell id="FNZ7fBpOuX21M7Q4hbkI-77" style="edgeStyle=orthogonalEdgeStyle;rounded=0;orthogonalLoop=1;jettySize=auto;html=1;exitX=1;exitY=0.5;exitDx=0;exitDy=0;entryX=0.5;entryY=1;entryDx=0;entryDy=0;" edge="1" parent="1" source="FNZ7fBpOuX21M7Q4hbkI-74" target="FNZ7fBpOuX21M7Q4hbkI-75">
          <mxGeometry relative="1" as="geometry" />
        </mxCell>
        <mxCell id="FNZ7fBpOuX21M7Q4hbkI-79" style="edgeStyle=orthogonalEdgeStyle;rounded=0;orthogonalLoop=1;jettySize=auto;html=1;exitX=1;exitY=0.5;exitDx=0;exitDy=0;entryX=0;entryY=0.5;entryDx=0;entryDy=0;" edge="1" parent="1" source="FNZ7fBpOuX21M7Q4hbkI-41" target="FNZ7fBpOuX21M7Q4hbkI-75">
          <mxGeometry relative="1" as="geometry" />
        </mxCell>
      </root>
    </mxGraphModel>
  </diagram>
</mxfile>
